<svg xmlns="http://www.w3.org/2000/svg" width="16" height="16" viewBox="0 0 16 16">
  <g fill="#000000" fill-rule="evenodd">
    <path d="M8.12869565,0 C3.80646718,0 0.302608696,3.581722 0.302608696,8 C0.302608696,12.418278 3.80646718,16 8.12869565,16 C12.4509241,16 15.9547826,12.418278 15.9547826,8 C15.9547826,3.581722 12.4509241,2.52637417e-15 8.12869565,2.52637417e-15 L8.12869565,0 Z M8.12869565,15.8151111 C3.9025167,15.8151111 0.476521739,12.3129829 0.476521739,7.99288889 C0.476521739,3.67279485 3.9025167,0.170666667 8.12869565,0.170666667 C12.3548746,0.170666667 15.7808696,3.67279485 15.7808696,7.99288889 C15.7808696,10.0674712 14.9746607,12.057084 13.5395997,13.5240353 C12.1045387,14.9909865 10.1581784,15.8151111 8.12869565,15.8151111 L8.12869565,15.8151111 Z M7.70782609,1.16622222 C7.70782609,1.08444444 7.74956522,1.03466667 7.81913043,1.03466667 L8.12869565,1.03466667 C11.6585766,1.03684237 14.6024211,3.79431002 14.9122088,7.38871079 C15.2219964,10.9831115 12.7951496,14.2242595 9.32001557,14.8573014 C5.84488158,15.4903433 2.47215447,13.305665 1.54822656,9.82313805 C0.624298639,6.34061112 2.45510296,2.71337761 5.76695652,1.46488889 C5.79742079,1.45395063 5.83103038,1.45707467 5.85906498,1.47345043 C5.88709957,1.48982619 5.90679587,1.51783957 5.91304348,1.55022222 C5.92936939,1.57943694 5.93220903,1.61453989 5.9207994,1.6460991 C5.90938976,1.6776583 5.88490097,1.70243718 5.85391304,1.71377778 C2.66459773,2.91860543 0.903418493,6.41373854 1.79561391,9.76764042 C2.68780932,13.1215423 5.93795583,15.2236697 9.28495201,14.611589 C12.6319482,13.9995084 14.9675374,10.8758917 14.6668685,7.41381465 C14.3661996,3.95173758 11.5288301,1.29756233 8.12869565,1.29777778 L7.81565217,1.29777778 C7.74608696,1.29422222 7.70782609,1.24444444 7.70782609,1.16622222 L7.70782609,1.16622222 Z M7.9373913,12.2524444 L8.12869565,12.2524444 C9.68652317,12.365259 11.1756345,11.5796425 11.9881659,10.216288 C12.8006972,8.85293358 12.8006972,7.13995531 11.9881659,5.77660087 C11.1756345,4.41324643 9.68652317,3.62762988 8.12869565,3.74044444 L7.9373913,3.74044444 C7.79130435,3.74044444 7.70782609,3.63022222 7.70782609,3.46311111 C7.70782609,3.296 7.79130435,3.18222222 7.9373913,3.18222222 L8.12869565,3.18222222 C10.7306772,3.18222222 12.84,5.33841887 12.84,7.99822222 C12.84,10.6580256 10.7306772,12.8142222 8.12869565,12.8142222 L7.9373913,12.8142222 C7.79130435,12.8142222 7.70782609,12.704 7.70782609,12.5368889 C7.70782609,12.3697778 7.79130435,12.2524444 7.9373913,12.2524444 L7.9373913,12.2524444 Z M8.12869565,13.5111111 C11.0308998,13.404527 13.3297857,10.9686116 13.3297857,8 C13.3297857,5.03138844 11.0308998,2.595473 8.12869565,2.48888889 L7.88521739,2.48888889 C7.77391304,2.48888889 7.70782609,2.40711111 7.70782609,2.27555556 C7.70782609,2.144 7.77391304,2.05866667 7.88521739,2.05866667 L8.12869565,2.05866667 C10.2397097,2.00588103 12.2128462,3.12694508 13.2835419,4.98746191 C14.3542375,6.84797873 14.3542375,9.15557682 13.2835419,11.0160936 C12.2128462,12.8766105 10.2397097,13.9976745 8.12869565,13.9448889 L7.88521739,13.9448889 C7.77391304,13.9448889 7.70782609,13.8631111 7.70782609,13.728 C7.70782609,13.5928889 7.77391304,13.5146667 7.88521739,13.5146667 L8.12869565,13.5111111 Z M5.83304348,12.9884444 C5.93391304,13.0382222 5.94782609,13.1448889 5.89565217,13.2622222 C5.84347826,13.3795556 5.75304348,13.4293333 5.65217391,13.3795556 C3.61526536,12.3984349 2.31544522,10.3035256 2.31544522,8.00177778 C2.31544522,5.70002997 3.61526536,3.60512069 5.65217391,2.624 C5.70036148,2.60235236 5.75530329,2.60279322 5.80315248,2.62521145 C5.85100167,2.64762968 5.88719425,2.68988698 5.9026087,2.74133333 C5.95826087,2.86222222 5.93391304,2.96888889 5.83304348,3.01511111 C3.94371446,3.92529961 2.73810421,5.86851052 2.73810421,8.00355556 C2.73810421,10.1386006 3.94371446,12.0818115 5.83304348,12.992 L5.83304348,12.9884444 Z M5.83304348,11.5448889 C5.92901578,11.6403324 5.9448823,11.7921133 5.87080625,11.9061317 C5.7967302,12.0201502 5.6537187,12.0640719 5.53043478,12.0106667 C4.21751497,11.1182694 3.42854415,9.61348308 3.42854415,8.00177778 C3.42854415,6.39007248 4.21751497,4.88528612 5.53043478,3.99288889 C5.65371427,3.93224894 5.8018548,3.9735507 5.87794488,4.08977514 C5.95403496,4.20599958 5.93489388,4.36173913 5.83304348,4.45511111 C4.67475471,5.24693065 3.97940354,6.57738257 3.97940354,8.00177778 C3.97940354,9.42617299 4.67475471,10.7566249 5.83304348,11.5484444 L5.83304348,11.5448889 Z M5.35304348,10.1226667 C4.4393481,8.86429882 4.4393481,7.1428123 5.35304348,5.88444444 C5.47622592,5.7994012 5.63866194,5.80377455 5.75729424,5.89532831 C5.87592654,5.98688207 5.92453334,6.14537973 5.87826087,6.28977778 C5.13850692,7.3071719 5.13850692,8.69993921 5.87826087,9.71733333 C5.92453334,9.86173138 5.87592654,10.020229 5.75729424,10.1117828 C5.63866194,10.2033366 5.47622592,10.2077099 5.35304348,10.1226667 L5.35304348,10.1226667 Z"/>
    <path d="M6.89043478,5.45066667 C6.77875429,5.49798682 6.65104762,5.48263456 6.55315348,5.41012038 C6.45525934,5.3376062 6.40122098,5.21833252 6.41043478,5.09511111 L6.41043478,1.45066667 C6.41043478,1.22666667 6.57043478,1.09511111 6.82086957,1.09511111 C7.07130435,1.09511111 7.22782609,1.22311111 7.22782609,1.45066667 L7.22782609,4.48355556 C8.56219576,4.12845797 9.97713802,4.59336524 10.8592028,5.6767162 C11.7412675,6.76006716 11.9316493,8.26681715 11.3478079,9.5437127 C10.7639665,10.8206083 9.51101566,11.6377593 8.13217391,11.6408889 L8.05565217,11.6408889 C7.84,11.6408889 7.70782609,11.4773333 7.70782609,11.2213333 C7.70782609,10.9653333 7.83652174,10.8053333 8.05565217,10.8053333 L8.13217391,10.8053333 C9.64879583,10.8112243 10.8829326,9.55921352 10.8886956,8.00888889 C10.8944586,6.45856426 9.6696654,5.19700219 8.15304348,5.19111111 C7.71952972,5.19148651 7.29038914,5.27970531 6.89043478,5.45066667 L6.89043478,5.45066667 Z M9.67304348,6.42844444 C9.26708167,6.01156109 8.71455621,5.77846746 8.13913043,5.78133333 C7.35304348,5.78133333 6.46608696,6.19022222 6.42086957,6.57066667 L6.42086957,6.96888889 L6.42086957,13.4364444 C6.42086957,13.6888889 6.58086957,13.792 6.82782609,13.792 C7.07478261,13.792 7.23478261,13.6817778 7.23478261,13.4364444 L7.23478261,6.92622222 C7.48739818,6.71008254 7.81002529,6.59845907 8.13913043,6.61333333 C8.86070093,6.65071939 9.42698405,7.25966997 9.42698405,7.99822222 C9.42698405,8.73677448 8.86070093,9.34572505 8.13913043,9.38311111 L8.05913043,9.38311111 C7.84347826,9.38311111 7.71130435,9.54666667 7.71130435,9.79911111 C7.71130435,10.0515556 7.84,10.2151111 8.05913043,10.2151111 L8.13913043,10.2151111 C9.01648241,10.2144371 9.80715215,9.67388442 10.142811,8.84526624 C10.4784699,8.01664805 10.2930955,7.06294921 9.67304348,6.42844444 L9.67304348,6.42844444 Z"/>
  </g>
</svg>
